<?xml version="1.0" standalone="no"?>
<!DOCTYPE svg PUBLIC "-//W3C//DTD SVG 20010904//EN"
 "http://www.w3.org/TR/2001/REC-SVG-20010904/DTD/svg10.dtd">
<svg version="1.0" xmlns="http://www.w3.org/2000/svg"
 width="700.000000pt" height="700.000000pt" viewBox="0 0 700.000000 700.000000"
 preserveAspectRatio="xMidYMid meet">
<metadata>
Created by potrace 1.11, written by Peter Selinger 2001-2013
</metadata>
<g transform="translate(0.000000,700.000000) scale(0.100000,-0.100000)"
fill="#000000" stroke="none">
<path d="M3205 6589 c-132 -14 -163 -18 -290 -40 -427 -74 -902 -289 -1310
-594 -44 -33 -82 -62 -85 -65 -3 -3 -23 -20 -45 -39 -153 -129 -371 -368 -476
-521 -13 -19 -27 -39 -32 -45 -60 -72 -230 -375 -300 -535 -16 -36 -33 -74
-38 -85 -8 -18 -30 -73 -34 -85 -1 -3 -4 -12 -8 -20 -40 -103 -118 -385 -130
-470 -3 -19 -10 -64 -15 -100 -10 -62 -13 -91 -28 -245 -8 -88 -8 -372 0 -489
7 -95 21 -209 40 -326 22 -131 108 -443 146 -525 5 -11 21 -49 36 -85 41 -100
144 -304 213 -419 304 -511 726 -902 1266 -1174 188 -95 308 -143 500 -202 94
-28 126 -37 190 -51 106 -23 224 -44 275 -49 36 -4 94 -10 130 -14 86 -11 485
-11 580 0 200 22 240 28 365 54 246 53 473 134 720 259 652 330 1110 798 1427
1457 84 176 180 443 213 594 2 11 7 31 10 45 9 41 44 261 50 315 14 136 17
204 17 370 0 648 -171 1201 -543 1756 -280 417 -683 769 -1156 1008 -345 175
-621 261 -983 306 -30 4 -64 10 -75 12 -34 9 -556 10 -630 2z m-995 -2479 c0
-4 -9 -30 -21 -57 -75 -173 -109 -342 -109 -550 -1 -206 31 -369 108 -549 l30
-70 -603 -301 -603 -301 -43 91 c-93 202 -169 456 -204 687 -4 25 -9 54 -11
64 -18 97 -24 482 -11 641 27 310 105 601 234 877 l36 76 598 -299 c330 -165
599 -304 599 -309z m1445 476 c17 -4 45 -9 64 -12 111 -19 293 -100 418 -186
128 -88 262 -248 342 -405 32 -65 76 -187 85 -238 3 -17 10 -52 15 -80 10 -52
8 -311 -3 -355 -3 -14 -8 -36 -11 -50 -32 -172 -180 -431 -316 -553 -78 -70
-78 -70 -144 -114 -139 -93 -304 -157 -461 -178 -46 -6 -250 -7 -279 -2 -11 3
-36 7 -55 11 -73 13 -86 16 -149 36 -72 24 -222 98 -286 142 -193 135 -347
346 -419 577 -25 80 -31 103 -41 181 -6 44 -6 232 0 285 24 211 153 473 311
630 168 167 406 283 643 313 62 9 240 7 286 -2z"/>
</g>
</svg>
