<?xml version="1.0" encoding="utf-8"?>
<!DOCTYPE svg PUBLIC "-//W3C//DTD SVG 1.1//EN" "http://www.w3.org/Graphics/SVG/1.1/DTD/svg11.dtd">
<svg version="1.1" id="Laag_1" xmlns="http://www.w3.org/2000/svg" xmlns:xlink="http://www.w3.org/1999/xlink" x="0px"
     y="0px"
     viewBox="0 0 141.732 141.732" enable-background="new 0 0 141.732 141.732" xml:space="preserve">
<g id="Slide_1_page1">
		<path id="Drawing_1_0" fill="#1E3C6F" stroke="#6E739A" stroke-miterlimit="10" d="M124.71,39.728
			c5.726,9.921,8.306,19.672,8.306,31.153s-2.58,21.203-8.306,31.124s-12.841,17.065-22.791,22.819
			c-9.921,5.726-19.616,8.334-31.068,8.334c-11.424,0-21.175-2.608-31.068-8.334c-9.893-5.754-17.036-12.869-22.762-22.819
			S8.717,82.332,8.717,70.88s2.58-21.231,8.306-31.153 M42.562,70.852c0-4.649,0.964-8.674,2.976-12.671L20.282,45.539
			c-4.082,7.994-5.953,16.044-5.953,25.313c0,9.298,1.871,17.348,5.953,25.342l25.313-12.643
			C43.526,79.526,42.562,75.472,42.562,70.852z M70.852,93.501c4.167,0,7.682-0.935,11.282-3.033c3.6-2.126,6.208-4.677,8.277-8.277
			s3.033-7.172,3.033-11.339c0-4.195-0.935-7.71-3.033-11.31c-2.098-3.6-4.649-6.236-8.277-8.306
			c-3.628-2.069-7.115-3.061-11.282-3.061c-4.167,0-7.71,0.992-11.282,3.061c-3.6,2.069-6.236,4.677-8.306,8.306
			c-2.069,3.628-3.033,7.143-3.033,11.31c0,4.139,0.964,7.71,3.033,11.339c2.069,3.628,4.677,6.18,8.306,8.277
			C63.17,92.537,66.685,93.501,70.852,93.501z M17.022,39.728c5.726-9.921,12.841-17.065,22.791-22.819
			c9.921-5.726,19.616-8.334,31.068-8.334c11.424,0,21.175,2.608,31.068,8.334c9.893,5.754,17.036,12.869,22.762,22.819"/>
</g>
</svg>
