<?xml version="1.0" encoding="utf-8"?>
<!DOCTYPE svg PUBLIC "-//W3C//DTD SVG 1.1//EN" "http://www.w3.org/Graphics/SVG/1.1/DTD/svg11.dtd">
<svg version="1.1" id="Laag_1" xmlns="http://www.w3.org/2000/svg" xmlns:xlink="http://www.w3.org/1999/xlink" x="0px"
     y="0px"
     viewBox="0 0 360 144" enable-background="new 0 0 360 144" xml:space="preserve">
<g id="Slide_1_page1">
		<path id="Drawing_1_0" fill="#1E3C71" d="M343.474,77.981c-1.899-14.258-11.055-25.37-29.254-35.518
			c-16.724-9.298-36.454-15.194-62.532-18.68c5.896,4.706,10.602,10.318,14.655,17.32c5.726,9.921,8.306,19.672,8.306,31.153
			s-2.579,21.203-8.306,31.124c-5.726,9.921-12.841,17.065-22.791,22.819c-9.921,5.726-19.616,8.334-31.068,8.334
			c-11.424,0-21.175-2.608-31.068-8.334c-9.893-5.754-17.036-12.869-22.762-22.819s-8.306-19.672-8.306-31.124
			s2.58-21.231,8.306-31.153c4.535-7.852,9.893-13.946,16.809-18.964c-7.228,0.624-14.655,1.417-22.309,2.438
			C119.991,28.998,92.268,36,64.517,46.998C38.608,57.231,19.956,68.06,5.414,81.326c2.268-2.778,4.876-5.613,7.767-8.447
			C28.12,58.28,47.565,46.687,75.317,35.688s55.474-18,88.611-22.394c33.109-4.422,61.739-4.961,91.417-1.672
			c29.65,3.317,51.42,9.411,69.647,19.559c18.198,10.148,27.383,21.231,29.254,35.49c1.928,14.287-3.997,27.439-18.935,41.981
			c-0.964,0.964-1.984,1.928-3.005,2.863C341.49,100.148,345.005,89.461,343.474,77.981z M184.195,72.227
			c0-4.649,0.964-8.674,2.976-12.671l-25.257-12.643c-4.082,7.994-5.953,16.044-5.953,25.313c0,9.298,1.871,17.348,5.953,25.342
			l25.313-12.643C185.159,80.901,184.195,76.847,184.195,72.227z M212.485,94.876c4.167,0,7.682-0.935,11.282-3.033
			c3.6-2.126,6.208-4.677,8.277-8.277s3.033-7.172,3.033-11.339c0-4.195-0.935-7.71-3.033-11.31s-4.649-6.236-8.277-8.306
			c-3.628-2.069-7.115-3.061-11.282-3.061c-4.167,0-7.71,0.992-11.282,3.061c-3.6,2.069-6.236,4.677-8.306,8.306
			c-2.069,3.628-3.033,7.143-3.033,11.31c0,4.139,0.964,7.71,3.033,11.339c2.069,3.628,4.677,6.18,8.306,8.277
			C204.803,93.912,208.318,94.876,212.485,94.876z"/>
    <path id="Drawing_1_1" fill="none" stroke="#6D7299" stroke-linejoin="round" d="M343.474,77.981
			c-1.899-14.258-11.055-25.37-29.254-35.518c-16.724-9.298-36.454-15.194-62.532-18.68c5.896,4.706,10.602,10.318,14.655,17.32
			c5.726,9.921,8.306,19.672,8.306,31.153s-2.579,21.203-8.306,31.124c-5.726,9.921-12.841,17.065-22.791,22.819
			c-9.921,5.726-19.616,8.334-31.068,8.334c-11.424,0-21.175-2.608-31.068-8.334c-9.893-5.754-17.036-12.869-22.762-22.819
			s-8.306-19.672-8.306-31.124s2.58-21.231,8.306-31.153c4.535-7.852,9.893-13.946,16.809-18.964
			c-7.228,0.624-14.655,1.417-22.309,2.438C119.991,28.998,92.268,36,64.517,46.998C38.608,57.231,19.956,68.06,5.414,81.326
			c2.268-2.778,4.876-5.613,7.767-8.447C28.12,58.28,47.565,46.687,75.317,35.688s55.474-18,88.611-22.394
			c33.109-4.422,61.739-4.961,91.417-1.672c29.65,3.317,51.42,9.411,69.647,19.559c18.198,10.148,27.383,21.231,29.254,35.49
			c1.928,14.287-3.997,27.439-18.935,41.981c-0.964,0.964-1.984,1.928-3.005,2.863C341.49,100.148,345.005,89.461,343.474,77.981z"
    />
    <path id="Drawing_1_2" fill="none" stroke="#6D7299" stroke-linejoin="round" d="M184.195,72.227
			c0-4.649,0.964-8.674,2.976-12.671l-25.257-12.643c-4.082,7.994-5.953,16.044-5.953,25.313c0,9.298,1.871,17.348,5.953,25.342
			l25.313-12.643C185.159,80.901,184.195,76.847,184.195,72.227z"/>
    <path id="Drawing_1_3" fill="none" stroke="#6D7299" stroke-linejoin="round" d="M212.485,94.876
			c4.167,0,7.682-0.935,11.282-3.033c3.6-2.126,6.208-4.677,8.277-8.277s3.033-7.172,3.033-11.339c0-4.195-0.935-7.71-3.033-11.31
			s-4.649-6.236-8.277-8.306c-3.628-2.069-7.115-3.061-11.282-3.061c-4.167,0-7.71,0.992-11.282,3.061
			c-3.6,2.069-6.236,4.677-8.306,8.306c-2.069,3.628-3.033,7.143-3.033,11.31c0,4.139,0.964,7.71,3.033,11.339
			c2.069,3.628,4.677,6.18,8.306,8.277C204.803,93.912,208.318,94.876,212.485,94.876z"/>
	</g>
</svg>
